<?xml version="1.0" standalone="no"?><svg xmlns="http://www.w3.org/2000/svg" viewBox="0 0 1440 320"><path fill="#747bff" fill-opacity="1" d="M0,256L24,256C48,256,96,256,144,250.7C192,245,240,235,288,229.3C336,224,384,224,432,192C480,160,528,96,576,101.3C624,107,672,181,720,186.7C768,192,816,128,864,122.7C912,117,960,171,1008,202.7C1056,235,1104,245,1152,245.3C1200,245,1248,235,1296,245.3C1344,256,1392,288,1416,304L1440,320L1440,320L1416,320C1392,320,1344,320,1296,320C1248,320,1200,320,1152,320C1104,320,1056,320,1008,320C960,320,912,320,864,320C816,320,768,320,720,320C672,320,624,320,576,320C528,320,480,320,432,320C384,320,336,320,288,320C240,320,192,320,144,320C96,320,48,320,24,320L0,320Z"></path></svg>