<?xml version="1.0" standalone="no"?><svg xmlns="http://www.w3.org/2000/svg" viewBox="0 0 1440 320"><path fill="#747bff" fill-opacity="1" d="M0,0L24,32C48,64,96,128,144,138.7C192,149,240,107,288,112C336,117,384,171,432,208C480,245,528,267,576,277.3C624,288,672,288,720,277.3C768,267,816,245,864,245.3C912,245,960,267,1008,266.7C1056,267,1104,245,1152,245.3C1200,245,1248,267,1296,250.7C1344,235,1392,181,1416,154.7L1440,128L1440,320L1416,320C1392,320,1344,320,1296,320C1248,320,1200,320,1152,320C1104,320,1056,320,1008,320C960,320,912,320,864,320C816,320,768,320,720,320C672,320,624,320,576,320C528,320,480,320,432,320C384,320,336,320,288,320C240,320,192,320,144,320C96,320,48,320,24,320L0,320Z"></path></svg>